G75*
G70*
%OFA0B0*%
%FSLAX24Y24*%
%IPPOS*%
%LPD*%
%AMOC8*
5,1,8,0,0,1.08239X$1,22.5*
%
%ADD10R,0.0600X0.0600*%
%ADD11C,0.0600*%
%ADD12C,0.0515*%
%ADD13C,0.0740*%
%ADD14C,0.0700*%
%ADD15R,0.0594X0.0594*%
%ADD16R,0.1384X0.1384*%
%ADD17C,0.1384*%
%ADD18C,0.0850*%
%ADD19R,0.0740X0.0740*%
%ADD20C,0.0650*%
%ADD21C,0.0780*%
%ADD22R,0.0480X0.0880*%
%ADD23R,0.1417X0.0866*%
%ADD24C,0.0500*%
%ADD25C,0.0500*%
%ADD26C,0.0320*%
%ADD27C,0.0400*%
%ADD28C,0.0240*%
%ADD29C,0.0100*%
%ADD30C,0.0360*%
D10*
X017061Y009660D03*
D11*
X017061Y010660D03*
X017061Y011660D03*
X017061Y012660D03*
X017061Y013660D03*
X017061Y014660D03*
X017061Y015660D03*
X017061Y016660D03*
X017061Y017660D03*
X017061Y018660D03*
X017061Y019660D03*
X017061Y020660D03*
X017061Y021660D03*
X017061Y022660D03*
X017061Y023660D03*
X017061Y024660D03*
X016464Y029259D03*
X021964Y028259D03*
X010464Y029759D03*
X008464Y032759D03*
D12*
X003351Y028859D03*
X001776Y028859D03*
X001776Y016059D03*
X003351Y016059D03*
D13*
X006464Y016259D03*
X007464Y016259D03*
X008464Y016259D03*
X014564Y016259D03*
X014564Y017259D03*
X014564Y018259D03*
X014564Y019259D03*
X014564Y020759D03*
X014564Y021759D03*
X014564Y022759D03*
X014564Y023759D03*
X014564Y024759D03*
X014564Y025759D03*
X014564Y026759D03*
X014564Y027759D03*
X013084Y031259D03*
X013084Y032259D03*
X014344Y034669D03*
X014344Y036449D03*
X011784Y036449D03*
X011784Y034669D03*
X014564Y015259D03*
X014564Y014259D03*
X014564Y013259D03*
X014564Y012259D03*
X011964Y009009D03*
X010964Y009009D03*
X033564Y015759D03*
X033564Y016759D03*
X033564Y017759D03*
X033564Y018759D03*
X033564Y019759D03*
X033564Y020759D03*
X033564Y022759D03*
X033564Y023759D03*
X033564Y024759D03*
X033564Y025759D03*
X033564Y026759D03*
X033564Y027759D03*
D14*
X008743Y035459D03*
X006184Y035459D03*
D15*
X004788Y032259D03*
X001357Y032259D03*
X001357Y014259D03*
X001357Y012259D03*
X001357Y011259D03*
X001364Y010259D03*
X004795Y010259D03*
X004788Y011259D03*
X004788Y012259D03*
X004788Y014259D03*
X033964Y030259D03*
X033964Y033690D03*
D16*
X038464Y021873D03*
X038464Y010934D03*
D17*
X038464Y012509D03*
X038464Y014084D03*
X038464Y023448D03*
X038464Y025023D03*
D18*
X038448Y029298D03*
X036479Y029298D03*
X036479Y034220D03*
X038448Y034220D03*
D19*
X013084Y030259D03*
D20*
X011964Y016259D03*
X010964Y016259D03*
X010964Y013659D03*
X011964Y013659D03*
X010464Y011259D03*
X009464Y011259D03*
D21*
X005964Y007759D03*
X009964Y007759D03*
D22*
X007624Y011289D03*
X006714Y011289D03*
X005804Y011289D03*
D23*
X006714Y013729D03*
D24*
X018364Y009859D03*
X023764Y022359D03*
X018964Y032259D03*
X017964Y035259D03*
D25*
X018964Y034259D01*
X018964Y032259D01*
X033564Y020759D02*
X034464Y020759D01*
X035464Y019759D01*
X035464Y010759D01*
X033964Y009259D01*
X019564Y009259D01*
X019014Y008709D01*
X014414Y008709D01*
X013464Y007759D01*
X009964Y007759D01*
X007664Y010459D02*
X007664Y011249D01*
X007624Y011289D01*
X009434Y011289D01*
X009464Y011259D01*
X007664Y010459D02*
X005964Y008759D01*
X005964Y007759D01*
X001776Y028859D02*
X001714Y028921D01*
X001714Y030509D01*
X001357Y030865D01*
X001357Y032259D01*
D26*
X001776Y028859D02*
X002876Y027759D01*
X004464Y027759D01*
X007464Y030759D01*
X010464Y030759D01*
X011964Y029259D01*
X016464Y029259D01*
X017464Y028159D02*
X015664Y026359D01*
X015664Y021259D01*
X015164Y020759D01*
X019164Y025859D02*
X019164Y028509D01*
X015714Y031959D01*
X015714Y035419D01*
X014344Y036449D01*
X020164Y029059D02*
X029764Y029059D01*
X033964Y033690D01*
X033964Y030259D02*
X035464Y027759D01*
X035464Y021729D01*
X035214Y021479D01*
X035214Y021509D01*
X036714Y021509D01*
X037078Y021873D01*
X038464Y021873D01*
X036964Y019559D02*
X035043Y021479D01*
X034964Y021559D01*
X033914Y021559D01*
X033714Y021759D01*
X033064Y021759D01*
X032564Y021259D01*
X032564Y018459D01*
X033564Y017759D01*
X033964Y017759D01*
X034464Y017259D01*
X034464Y011259D01*
X033964Y010759D01*
X019064Y010759D01*
X019064Y010459D01*
X018464Y009859D01*
X018364Y009859D01*
X019064Y010759D02*
X017160Y010759D01*
X017061Y010660D01*
X011814Y010659D02*
X011014Y009759D01*
X011014Y009259D01*
X010964Y009009D01*
X011814Y010659D02*
X011814Y011859D01*
X010964Y013009D01*
X010964Y013659D01*
X006714Y012509D02*
X006714Y011289D01*
X005804Y011289D02*
X005634Y011289D01*
X004664Y012259D01*
X004788Y012259D01*
X003464Y012259D01*
X002464Y011259D01*
X001357Y011259D01*
X001357Y014259D02*
X001357Y014983D01*
X001714Y015339D01*
X001714Y015996D01*
X001776Y016059D01*
X019164Y025859D02*
X029264Y015759D01*
X033564Y015759D01*
X036964Y012009D02*
X036964Y019559D01*
X035214Y021479D02*
X035043Y021479D01*
X033564Y025759D02*
X032464Y025759D01*
X030964Y027259D01*
X022964Y027259D01*
X021964Y028259D01*
X036964Y012009D02*
X038182Y010790D01*
X038464Y010934D01*
D27*
X037659Y033259D02*
X034395Y033259D01*
X033964Y033690D01*
X037659Y033259D02*
X038448Y034220D01*
X013084Y030259D02*
X011864Y030259D01*
X010464Y031759D01*
X005214Y031759D01*
X005214Y031834D02*
X004788Y032259D01*
X007464Y016259D02*
X007464Y015759D01*
X007964Y015259D01*
X009464Y015259D01*
X010464Y016259D01*
X010964Y016259D01*
X010964Y013659D01*
X010864Y013759D01*
X010214Y013759D01*
X008964Y012509D01*
X006714Y012509D01*
X005964Y012509D01*
X005464Y013009D01*
X003214Y013009D01*
X002464Y012259D01*
X001357Y012259D01*
D28*
X001776Y016059D02*
X001776Y016071D01*
X002964Y017259D01*
X012214Y017259D01*
X013714Y018759D01*
X013714Y019759D01*
X013964Y020009D01*
X015714Y020009D01*
X016264Y020559D01*
X016264Y025809D01*
X017714Y027259D01*
X018464Y028259D02*
X018464Y012259D01*
X017964Y011759D01*
X017160Y011759D01*
X017061Y011660D01*
X017061Y012660D02*
X015964Y013758D01*
X015964Y014259D01*
X014964Y015259D01*
X014564Y015259D01*
X014564Y016259D02*
X014964Y016259D01*
X016464Y014759D01*
X016963Y014759D01*
X017061Y014660D01*
X015164Y020759D02*
X014564Y020759D01*
X014464Y021759D02*
X013814Y022409D01*
X013814Y026409D01*
X010464Y029759D01*
X013084Y031259D02*
X015464Y031259D01*
X018464Y028259D01*
X022064Y026509D02*
X030214Y026509D01*
X031964Y024759D01*
X033564Y024759D01*
X033564Y017759D02*
X030464Y017759D01*
X028362Y017760D01*
X023764Y022359D01*
X008464Y032759D02*
X006584Y034638D01*
X006184Y035459D01*
D29*
X005214Y031834D02*
X005214Y031759D01*
X001776Y028859D02*
X001564Y028859D01*
D30*
X017464Y028159D03*
X017714Y027259D03*
X020164Y029059D03*
X022064Y026509D03*
M02*
