%
M48
M72
T01C0.0200
T02C0.0276
T03C0.0315
T04C0.0320
T05C0.0354
T06C0.0394
T07C0.0400
T08C0.0472
T09C0.0984
T10C0.1102
T11C0.1500
T12C0.2000
%
T01
X23764Y22359
X18364Y9859
X18964Y32259
X22064Y26509
X17714Y27259
X17464Y28159
X20164Y29059
X17964Y35259
T02
X10964Y13659
X11964Y13659
X10464Y11259
X10964Y16259
X11964Y16259
X9464Y11259
T03
X3351Y16059
X1776Y16059
X1776Y28859
X3351Y28859
T04
X11964Y9009
X10964Y9009
T05
X6184Y35459
X8743Y35459
T06
X1357Y11259
X1357Y14259
X4788Y12259
X4795Y10259
X1364Y10259
X4788Y14259
X5964Y7759
X9964Y7759
X4788Y11259
X1357Y12259
X1357Y32259
X4788Y32259
X33964Y30259
X33964Y33690
T07
X6464Y16259
X7464Y16259
X8464Y16259
X17061Y11660
X14564Y12259
X14564Y13259
X17061Y12660
X14564Y16259
X14564Y15259
X14564Y14259
X14564Y17259
X14564Y20759
X17061Y20660
X17061Y19660
X17061Y13660
X17061Y14660
X17061Y15660
X17061Y16660
X17061Y17660
X17061Y22660
X33564Y17759
X33564Y16759
X33564Y15759
X17061Y18660
X14564Y23759
X17061Y23660
X17061Y24660
X14564Y26759
X10464Y29759
X13084Y30259
X8464Y32759
X11784Y34669
X14344Y34669
X13084Y31259
X13084Y32259
X17061Y10660
X17061Y9660
X14564Y18259
X14564Y19259
X14564Y24759
X17061Y21660
X14564Y22759
X14564Y21759
X14564Y25759
X14564Y27759
X16464Y29259
X21964Y28259
X11784Y36449
X14344Y36449
X33564Y23759
X33564Y22759
X33564Y20759
X33564Y19759
X33564Y18759
X33564Y25759
X33564Y27759
X33564Y26759
X33564Y24759
T08
X36479Y29298
X38448Y29298
X38448Y34220
X36479Y34220
T09
X38464Y25023
X38464Y14084
X38464Y12509
X38464Y23448
X38464Y21873
X38464Y10934
T10
X17061Y7495
X17061Y37023
X29266Y37023
X29266Y7495
T11
X12464Y20259
X12464Y24259
T12
X3464Y8259
X3464Y36259
X37464Y36259
X37464Y8259
M30
